<svg width="24" height="24" viewBox="0 0 24 24" fill="none" xmlns="http://www.w3.org/2000/svg">
<path d="M6.75 2V4.25M17.25 2V4.25M3 17.75V6.5C3 5.90326 3.23705 5.33097 3.65901 4.90901C4.08097 4.48705 4.65326 4.25 5.25 4.25H18.75C19.3467 4.25 19.919 4.48705 20.341 4.90901C20.7629 5.33097 21 5.90326 21 6.5V17.75M3 17.75C3 18.3467 3.23705 18.919 3.65901 19.341C4.08097 19.7629 4.65326 20 5.25 20H18.75C19.3467 20 19.919 19.7629 20.341 19.341C20.7629 18.919 21 18.3467 21 17.75M3 17.75V10.25C3 9.65326 3.23705 9.08097 3.65901 8.65901C4.08097 8.23705 4.65326 8 5.25 8H18.75C19.3467 8 19.919 8.23705 20.341 8.65901C20.7629 9.08097 21 9.65326 21 10.25V17.75" stroke="black" stroke-width="1.5" stroke-linecap="round" stroke-linejoin="round"/>
<rect x="16" y="15" width="3" height="3" rx="1" fill="black"/>
</svg>
